<svg width="20" height="19" viewBox="0 0 20 19" fill="none" xmlns="http://www.w3.org/2000/svg">
<path d="M18.7014 14.1719C18.6512 14.027 18.332 13.8135 17.7439 13.5321C17.5846 13.4434 17.3576 13.3228 17.0639 13.1698C16.7699 13.0169 16.503 12.8759 16.2638 12.7471C16.0241 12.6183 15.7995 12.4936 15.5897 12.373C15.5561 12.3489 15.4511 12.2786 15.2747 12.1616C15.0982 12.045 14.9493 11.9584 14.8273 11.9019C14.7055 11.8458 14.5857 11.8176 14.4681 11.8176C14.3002 11.8176 14.0904 11.9323 13.8385 12.1616C13.5866 12.3911 13.3555 12.6405 13.1456 12.9103C12.9357 13.1801 12.7131 13.4294 12.4781 13.6589C12.2428 13.8884 12.0495 14.003 11.8985 14.003C11.8227 14.003 11.7281 13.9827 11.6149 13.9428C11.5016 13.9026 11.4155 13.8681 11.3563 13.8403C11.2977 13.8119 11.1972 13.7558 11.0543 13.671C10.9111 13.5865 10.8315 13.5402 10.8147 13.5321C9.66405 12.9202 8.67717 12.2199 7.85392 11.4313C7.03094 10.6423 6.30006 9.69671 5.66172 8.5939C5.65334 8.57779 5.60492 8.50129 5.5168 8.36453C5.42854 8.22764 5.36971 8.13118 5.34032 8.07468C5.31093 8.0184 5.27523 7.93585 5.23331 7.82721C5.19138 7.71857 5.17033 7.62807 5.17033 7.55555C5.17033 7.41075 5.29006 7.22552 5.52946 7.00013C5.76882 6.77485 6.02928 6.56147 6.31056 6.36038C6.59207 6.1593 6.85226 5.93788 7.09171 5.69649C7.33107 5.45498 7.45075 5.25386 7.45075 5.09291C7.45075 4.98029 7.42136 4.86548 7.36262 4.74881C7.30384 4.63188 7.21355 4.4892 7.09171 4.32008C6.96982 4.15106 6.89635 4.05053 6.8711 4.01818C6.74524 3.8171 6.61519 3.60181 6.48064 3.37239C6.34609 3.14302 6.19922 2.88734 6.03956 2.60566C5.88003 2.3241 5.75413 2.10669 5.66163 1.95378C5.36781 1.39045 5.14527 1.08445 4.99403 1.03633C4.93521 1.01218 4.84695 1 4.72947 1C4.50256 1 4.20653 1.04017 3.84118 1.12078C3.47569 1.20125 3.1881 1.28566 2.97808 1.37434C2.5581 1.54328 2.11296 2.03425 1.64253 2.84708C1.21416 3.60354 1 4.35226 1 5.0927C1 5.30985 1.0147 5.52112 1.04409 5.72656C1.07348 5.93179 1.12599 6.16323 1.20167 6.42086C1.27722 6.67839 1.33817 6.86971 1.38424 6.99429C1.43036 7.11896 1.51645 7.34228 1.64249 7.66435C1.76835 7.98634 1.84403 8.18345 1.86923 8.25589C2.16318 9.04474 2.51176 9.74897 2.91489 10.3688C3.57816 11.399 4.48332 12.4637 5.62981 13.5625C6.77636 14.6611 7.8872 15.5285 8.96238 16.1643C9.60911 16.5506 10.3443 16.8846 11.1673 17.1665C11.243 17.1905 11.4487 17.2629 11.7845 17.3839C12.1205 17.5046 12.3537 17.5871 12.4838 17.6314C12.6139 17.6757 12.8136 17.7341 13.0821 17.8067C13.3512 17.8792 13.5925 17.9295 13.8067 17.9579C14.021 17.9857 14.2415 18 14.4682 18C15.2408 18 16.0222 17.7946 16.8117 17.3842C17.6598 16.9336 18.1721 16.5069 18.3484 16.1042C18.4412 15.9031 18.5291 15.6274 18.613 15.2772C18.6973 14.9271 18.7391 14.6435 18.7391 14.4261C18.7394 14.3131 18.7267 14.2287 18.7014 14.1719Z" stroke="black"/>
</svg>
